<svg xmlns="http://www.w3.org/2000/svg" width="1000" height="320" viewBox="0 0 1000 320" role="img" aria-label="Abu Bakar Ali - Turning Data, Code &amp; Ideas Into Real-World Projects"><defs><filter id="glow" x="-30%" y="-60%" width="160%" height="220%"><feGaussianBlur stdDeviation="3.5" result="b"/><feMerge><feMergeNode in="b"/><feMergeNode in="SourceGraphic"/></feMerge></filter><linearGradient id="brand" x1="0" y1="0" x2="1" y2="0"><stop offset="0" stop-color="#22d3ee"/><stop offset=".55" stop-color="#3b82f6"/><stop offset="1" stop-color="#a855f7"/></linearGradient>
<linearGradient id="bg" x1="0" y1="0" x2="1" y2="1"><stop offset="0" stop-color="#04060b"/><stop offset=".55" stop-color="#0b1020"><animate attributeName="stop-color" values="#0b1020;#150d2b;#0b1020" dur="9s" repeatCount="indefinite"/></stop><stop offset="1" stop-color="#05070d"/></linearGradient>
<radialGradient id="orbP"><stop offset="0" stop-color="#a855f7" stop-opacity=".35"/><stop offset="1" stop-color="#a855f7" stop-opacity="0"/></radialGradient>
<radialGradient id="orbC"><stop offset="0" stop-color="#22d3ee" stop-opacity=".25"/><stop offset="1" stop-color="#22d3ee" stop-opacity="0"/></radialGradient>
<linearGradient id="area" x1="0" y1="0" x2="0" y2="1"><stop offset="0" stop-color="#3b82f6" stop-opacity=".35"/><stop offset="1" stop-color="#3b82f6" stop-opacity="0"/></linearGradient>
<pattern id="grid" width="40" height="40" patternUnits="userSpaceOnUse"><path d="M40 0H0V40" fill="none" stroke="#1b2540" stroke-width=".6"/></pattern>
<clipPath id="card"><rect width="1000" height="320" rx="20"/></clipPath>
</defs>
<g clip-path="url(#card)">
<rect width="1000" height="320" fill="url(#bg)"/>
<rect width="1000" height="320" fill="url(#grid)" opacity=".55"/>
<circle cx="860" cy="100" r="190" fill="url(#orbP)"><animate attributeName="cx" values="840;890;840" dur="12s" repeatCount="indefinite"/></circle>
<circle cx="120" cy="300" r="200" fill="url(#orbC)"><animate attributeName="cy" values="300;270;300" dur="10s" repeatCount="indefinite"/></circle>
<path d="M0 304 L90 290 L170 298 L260 278 L350 288 L440 268 L530 278 L620 258 L710 268 L800 252 L890 262 L1000 244 L1000 320 L0 320 Z" fill="url(#area)"/>
<path d="M0 304 L90 290 L170 298 L260 278 L350 288 L440 268 L530 278 L620 258 L710 268 L800 252 L890 262 L1000 244" fill="none" stroke="#22d3ee" stroke-width="2" stroke-linejoin="round" pathLength="1" stroke-dasharray="1" stroke-dashoffset="1" filter="url(#glow)"><animate attributeName="stroke-dashoffset" values="1;0;0" keyTimes="0;.6;1" dur="8s" repeatCount="indefinite"/></path>
<circle cx="90" cy="290" r="3" fill="#22d3ee"><animate attributeName="opacity" values=".3;1;.3" dur="2.4s" begin="0.0s" repeatCount="indefinite"/></circle><circle cx="170" cy="298" r="3" fill="#22d3ee"><animate attributeName="opacity" values=".3;1;.3" dur="2.4s" begin="0.2s" repeatCount="indefinite"/></circle><circle cx="260" cy="278" r="3" fill="#22d3ee"><animate attributeName="opacity" values=".3;1;.3" dur="2.4s" begin="0.4s" repeatCount="indefinite"/></circle><circle cx="350" cy="288" r="3" fill="#22d3ee"><animate attributeName="opacity" values=".3;1;.3" dur="2.4s" begin="0.6s" repeatCount="indefinite"/></circle><circle cx="440" cy="268" r="3" fill="#22d3ee"><animate attributeName="opacity" values=".3;1;.3" dur="2.4s" begin="0.8s" repeatCount="indefinite"/></circle><circle cx="530" cy="278" r="3" fill="#22d3ee"><animate attributeName="opacity" values=".3;1;.3" dur="2.4s" begin="1.0s" repeatCount="indefinite"/></circle><circle cx="620" cy="258" r="3" fill="#22d3ee"><animate attributeName="opacity" values=".3;1;.3" dur="2.4s" begin="1.2s" repeatCount="indefinite"/></circle><circle cx="710" cy="268" r="3" fill="#22d3ee"><animate attributeName="opacity" values=".3;1;.3" dur="2.4s" begin="1.4s" repeatCount="indefinite"/></circle><circle cx="800" cy="252" r="3" fill="#22d3ee"><animate attributeName="opacity" values=".3;1;.3" dur="2.4s" begin="1.6s" repeatCount="indefinite"/></circle><circle cx="890" cy="262" r="3" fill="#22d3ee"><animate attributeName="opacity" values=".3;1;.3" dur="2.4s" begin="1.8s" repeatCount="indefinite"/></circle>
<g stroke="#3b82f6" stroke-width="1" opacity=".5" stroke-dasharray="3 5"><animate attributeName="stroke-dashoffset" values="0;-16" dur="1.6s" repeatCount="indefinite"/><line x1="700" y1="70" x2="780" y2="45"/><line x1="700" y1="70" x2="780" y2="100"/><line x1="700" y1="70" x2="780" y2="160"/><line x1="700" y1="70" x2="780" y2="215"/><line x1="700" y1="130" x2="780" y2="45"/><line x1="700" y1="130" x2="780" y2="100"/><line x1="700" y1="130" x2="780" y2="160"/><line x1="700" y1="130" x2="780" y2="215"/><line x1="700" y1="190" x2="780" y2="45"/><line x1="700" y1="190" x2="780" y2="100"/><line x1="700" y1="190" x2="780" y2="160"/><line x1="700" y1="190" x2="780" y2="215"/><line x1="780" y1="45" x2="860" y2="70"/><line x1="780" y1="45" x2="860" y2="130"/><line x1="780" y1="45" x2="860" y2="190"/><line x1="780" y1="100" x2="860" y2="70"/><line x1="780" y1="100" x2="860" y2="130"/><line x1="780" y1="100" x2="860" y2="190"/><line x1="780" y1="160" x2="860" y2="70"/><line x1="780" y1="160" x2="860" y2="130"/><line x1="780" y1="160" x2="860" y2="190"/><line x1="780" y1="215" x2="860" y2="70"/><line x1="780" y1="215" x2="860" y2="130"/><line x1="780" y1="215" x2="860" y2="190"/><line x1="860" y1="70" x2="940" y2="100"/><line x1="860" y1="70" x2="940" y2="160"/><line x1="860" y1="130" x2="940" y2="100"/><line x1="860" y1="130" x2="940" y2="160"/><line x1="860" y1="190" x2="940" y2="100"/><line x1="860" y1="190" x2="940" y2="160"/></g>
<circle cx="700" cy="70" r="5" fill="#0b1020" stroke="#22d3ee" stroke-width="1.5"/><circle cx="700" cy="70" r="5" fill="none" stroke="#a855f7" stroke-width="1.5"><animate attributeName="r" values="5;14" dur="3s" begin="0.0s" repeatCount="indefinite"/><animate attributeName="opacity" values=".8;0" dur="3s" begin="0.0s" repeatCount="indefinite"/></circle><circle cx="700" cy="130" r="5" fill="#0b1020" stroke="#22d3ee" stroke-width="1.5"/><circle cx="700" cy="130" r="5" fill="none" stroke="#a855f7" stroke-width="1.5"><animate attributeName="r" values="5;14" dur="3s" begin="0.37s" repeatCount="indefinite"/><animate attributeName="opacity" values=".8;0" dur="3s" begin="0.37s" repeatCount="indefinite"/></circle><circle cx="700" cy="190" r="5" fill="#0b1020" stroke="#22d3ee" stroke-width="1.5"/><circle cx="700" cy="190" r="5" fill="none" stroke="#a855f7" stroke-width="1.5"><animate attributeName="r" values="5;14" dur="3s" begin="0.74s" repeatCount="indefinite"/><animate attributeName="opacity" values=".8;0" dur="3s" begin="0.74s" repeatCount="indefinite"/></circle><circle cx="780" cy="45" r="5" fill="#0b1020" stroke="#22d3ee" stroke-width="1.5"/><circle cx="780" cy="45" r="5" fill="none" stroke="#a855f7" stroke-width="1.5"><animate attributeName="r" values="5;14" dur="3s" begin="1.11s" repeatCount="indefinite"/><animate attributeName="opacity" values=".8;0" dur="3s" begin="1.11s" repeatCount="indefinite"/></circle><circle cx="780" cy="100" r="5" fill="#0b1020" stroke="#22d3ee" stroke-width="1.5"/><circle cx="780" cy="100" r="5" fill="none" stroke="#a855f7" stroke-width="1.5"><animate attributeName="r" values="5;14" dur="3s" begin="1.48s" repeatCount="indefinite"/><animate attributeName="opacity" values=".8;0" dur="3s" begin="1.48s" repeatCount="indefinite"/></circle><circle cx="780" cy="160" r="5" fill="#0b1020" stroke="#22d3ee" stroke-width="1.5"/><circle cx="780" cy="160" r="5" fill="none" stroke="#a855f7" stroke-width="1.5"><animate attributeName="r" values="5;14" dur="3s" begin="1.85s" repeatCount="indefinite"/><animate attributeName="opacity" values=".8;0" dur="3s" begin="1.85s" repeatCount="indefinite"/></circle><circle cx="780" cy="215" r="5" fill="#0b1020" stroke="#22d3ee" stroke-width="1.5"/><circle cx="780" cy="215" r="5" fill="none" stroke="#a855f7" stroke-width="1.5"><animate attributeName="r" values="5;14" dur="3s" begin="2.22s" repeatCount="indefinite"/><animate attributeName="opacity" values=".8;0" dur="3s" begin="2.22s" repeatCount="indefinite"/></circle><circle cx="860" cy="70" r="5" fill="#0b1020" stroke="#22d3ee" stroke-width="1.5"/><circle cx="860" cy="70" r="5" fill="none" stroke="#a855f7" stroke-width="1.5"><animate attributeName="r" values="5;14" dur="3s" begin="2.59s" repeatCount="indefinite"/><animate attributeName="opacity" values=".8;0" dur="3s" begin="2.59s" repeatCount="indefinite"/></circle><circle cx="860" cy="130" r="5" fill="#0b1020" stroke="#22d3ee" stroke-width="1.5"/><circle cx="860" cy="130" r="5" fill="none" stroke="#a855f7" stroke-width="1.5"><animate attributeName="r" values="5;14" dur="3s" begin="2.96s" repeatCount="indefinite"/><animate attributeName="opacity" values=".8;0" dur="3s" begin="2.96s" repeatCount="indefinite"/></circle><circle cx="860" cy="190" r="5" fill="#0b1020" stroke="#22d3ee" stroke-width="1.5"/><circle cx="860" cy="190" r="5" fill="none" stroke="#a855f7" stroke-width="1.5"><animate attributeName="r" values="5;14" dur="3s" begin="0.33s" repeatCount="indefinite"/><animate attributeName="opacity" values=".8;0" dur="3s" begin="0.33s" repeatCount="indefinite"/></circle><circle cx="940" cy="100" r="5" fill="#0b1020" stroke="#22d3ee" stroke-width="1.5"/><circle cx="940" cy="100" r="5" fill="none" stroke="#a855f7" stroke-width="1.5"><animate attributeName="r" values="5;14" dur="3s" begin="0.7s" repeatCount="indefinite"/><animate attributeName="opacity" values=".8;0" dur="3s" begin="0.7s" repeatCount="indefinite"/></circle><circle cx="940" cy="160" r="5" fill="#0b1020" stroke="#22d3ee" stroke-width="1.5"/><circle cx="940" cy="160" r="5" fill="none" stroke="#a855f7" stroke-width="1.5"><animate attributeName="r" values="5;14" dur="3s" begin="1.07s" repeatCount="indefinite"/><animate attributeName="opacity" values=".8;0" dur="3s" begin="1.07s" repeatCount="indefinite"/></circle>
<g font-family="'Fira Code','JetBrains Mono','SF Mono',Consolas,'Courier New',monospace" fill="#22d3ee" opacity=".3">
<text x="560" y="62" font-size="26">&lt;/&gt;<animateTransform attributeName="transform" type="translate" values="0 0;0 -8;0 0" dur="5s" repeatCount="indefinite"/></text>
<text x="640" y="150" font-size="30" fill="#a855f7">&#8721;<animateTransform attributeName="transform" type="translate" values="0 0;0 8;0 0" dur="6s" repeatCount="indefinite"/></text>
<text x="610" y="222" font-size="24">{ }<animateTransform attributeName="transform" type="translate" values="0 0;0 -6;0 0" dur="4.5s" repeatCount="indefinite"/></text>
</g>
<g font-family="'Fira Code','JetBrains Mono','SF Mono',Consolas,'Courier New',monospace" font-size="12" fill="#6b7280">
<circle cx="66" cy="40" r="5" fill="#ef4444"/><circle cx="84" cy="40" r="5" fill="#eab308"/><circle cx="102" cy="40" r="5" fill="#22c55e"/>
<text x="124" y="44">~/AbuBakarAli96/portfolio.md</text>
</g>
<text x="60" y="150" font-family="'Segoe UI',Inter,'Helvetica Neue',Arial,sans-serif" font-size="58" font-weight="800" fill="url(#brand)" filter="url(#glow)">Abu Bakar Ali<animate attributeName="opacity" values="0;1" dur="1.2s" fill="freeze"/></text>
<text x="62" y="190" font-family="'Fira Code','JetBrains Mono','SF Mono',Consolas,'Courier New',monospace" font-size="14" letter-spacing="2" fill="#9ca3af">Data Science Student | Frontend &amp; Web/App Developer</text>
<text x="62" y="236" font-family="'Segoe UI',Inter,'Helvetica Neue',Arial,sans-serif" font-size="19" font-style="italic" fill="#e5e7eb">Turning Data, Code &amp; Ideas Into <tspan fill="#22d3ee">Real-World Projects.</tspan></text>
</g>
<rect x=".5" y=".5" width="999" height="319" rx="20" fill="none" stroke="url(#brand)" stroke-opacity=".5"/>
</svg>